# xmcd
#
# Track frame offsets:
#	150
#	11798
#	24440
#	36991
#	52559
#	65064
#	81455
#	95900
#	107287
#	121995
#	136187
#	149743
#	161401
#	175970
#	188151
#	202340
#	213634
#	223114
#	239046
#	255190
#	271172
#	284990
#	298943
#	309925
#	320929
#
# Disc length: 4441
#
# Revision: 2
# Processed by: cddbd v1.5.1PL0 Copyright (c) Steve Scherf et al.
# Submitted via: CDex 1.51
# Normalized: r0:TDELIM( - ),TSWAP
#
DISCID=92115719
DTITLE=Various Artist - Jazz Station 2
DYEAR=2001
DGENRE=Jazz
TTITLE0=Louis Armstrong - St. James Infirmary
TTITLE1=Nina Simone - Mood Indigo
TTITLE2=Lena Horne - Sometimes I Feel Like A Motherless Child
TTITLE3=Dinah Washington - Willow Weep For Me
TTITLE4=Sarah Vaughan - My Favourite Things
TTITLE5=Billie Holiday - Stormy Weather
TTITLE6=The Inkspots - Into Each Life Some Rain Must Fall
TTITLE7=The Mills Brothers - Moon Glow
TTITLE8=Sarah Vaughan - Black Coffee
TTITLE9=Louis Armstrong - Back Ole Town Blues
TTITLE10=Billie Holiday - The Mood That I'm In
TTITLE11=Stephane Grapelli - Makin' Whoopie
TTITLE12=Nina Simone - After You've Gone
TTITLE13=Peggy Lee - I've Got A Right To Sing The Blues
TTITLE14=Louis Armstrong - Black And Blue
TTITLE15=Ella Fitzgerald - A Tisket A Tasket
TTITLE16=Tonny Bennett - Chicago
TTITLE17=Louis Prima - Angelina
TTITLE18=Glenn Miller - In The Mood
TTITLE19=Dizzy Gillespie - Desafinado
TTITLE20=Nat King Cole - Fine Sweet And Tasty
TTITLE21=Sonny Stitt - In A Sentimental Mood
TTITLE22=Al Jerreau - Joey
TTITLE23=Gene Krupa - King Porter Stomp
TTITLE24=Count Basie - Lester Leaps In
EXTD=YEAR: 2001
EXTT0=
EXTT1=
EXTT2=
EXTT3=
EXTT4=
EXTT5=
EXTT6=
EXTT7=
EXTT8=
EXTT9=
EXTT10=
EXTT11=
EXTT12=
EXTT13=
EXTT14=
EXTT15=
EXTT16=
EXTT17=
EXTT18=
EXTT19=
EXTT20=
EXTT21=
EXTT22=
EXTT23=
EXTT24=
PLAYORDER=
